<?xml version="1.0" encoding="utf-8"?>
<!-- Generator: Adobe Illustrator 15.1.0, SVG Export Plug-In . SVG Version: 6.00 Build 0)  -->
<!DOCTYPE svg PUBLIC "-//W3C//DTD SVG 1.1//EN" "http://www.w3.org/Graphics/SVG/1.1/DTD/svg11.dtd">
<svg version="1.1" id="Capa_1" xmlns="http://www.w3.org/2000/svg" xmlns:xlink="http://www.w3.org/1999/xlink" x="0px" y="0px"
	 width="595.281px" height="841.891px" viewBox="0 0 595.281 841.891" enable-background="new 0 0 595.281 841.891"
	 xml:space="preserve">
<g>
	<path fill="#C0C0C0" d="M571.869,483.449h8.928v-8.929V370.346v-8.929h-8.928h-70.891c-4.17-14.269-9.852-28.07-16.955-41.182
		l50.053-50.054l6.314-6.313l-6.314-6.313l-73.662-73.663l-6.313-6.316l-6.313,6.316l-50.24,50.239
		c-12.432-6.661-25.465-12.061-38.893-16.108v-69.817v-8.929h-8.928H245.553h-8.929v8.929v69.82
		c-12.751,3.846-25.133,8.896-36.955,15.066l-49.2-49.2l-6.313-6.316l-6.313,6.316l-73.663,73.66l-6.313,6.313l6.313,6.313
		l48.131,48.131c-7.117,12.796-12.864,26.243-17.15,40.128H26.389h-8.929v8.929v104.174v8.929h8.929h67.913
		c4.373,14.96,10.412,29.407,18.016,43.099L64.18,571.706l-6.313,6.313l6.313,6.313l73.663,73.662l6.313,6.316l6.313-6.316
		l49.197-49.196c12.703,6.646,26.088,11.979,39.934,15.912v68.972v8.93h8.929h104.173h8.93v-8.93v-70.737
		c12.379-3.923,24.416-9.01,35.922-15.183l50.234,50.229l6.313,6.316l6.313-6.316l73.662-73.662l6.314-6.313l-6.314-6.313
		l-50.053-50.055c6.629-12.224,12.018-25.028,16.09-38.205h71.756V483.449z M424.136,420.945
		c0,69.752-56.744,126.497-126.496,126.497s-126.497-56.745-126.497-126.497s56.745-126.497,126.497-126.497
		S424.136,351.193,424.136,420.945z"/>
</g>
</svg>
