<svg xmlns="http://www.w3.org/2000/svg" width="512" height="394" viewBox="0 0 512 394">
  <g>
    <g fill="#343434" stroke="#fff" stroke-width="38.00553894">
      <g transform="matrix(.2 0 0 .199 349.151 -68.15)">
        <path fill="#00b7eb" stroke="#222" stroke-width="148.04658508" d="M-1675.1443 415.24957H742.1828v1827.1364h-2417.3271z"/>
        <ellipse ry="225.59187" rx="225.47244" cy="882.64752" cx="255.03197" fill="#ffef00" stroke="none" stroke-width="35"/>
        <path d="M-1473.5901 2038.0474l536.36597-1150.3867 337.39157 643.7944 371.99587-211.0801c257.074231 228.7769 502.19652 498.5866 763.45659 720.3108z" fill="#ff0090" fill-rule="evenodd" stroke="none" stroke-width="11.67479897"/>
        <g>
          <g>
            <path d="M329.6205 325.01188v-60.654h-49.13c-3.463-15.158-9.507-29.286-17.534-42.05l34.83-34.828-42.914-42.881-34.812 34.795c-12.778-8.025-26.906-14.066-42.066-17.529v-49.133h-60.654v49.133c-15.163 3.463-29.287997 9.504-42.068997 17.558l-34.828-34.824-42.8810002 42.881 34.8290002 34.828c-8.039 12.764-14.083 26.892-17.548 42.05h-49.131v60.654h49.13c3.465 15.163 9.493 29.29 17.534 42.055l-34.8140002 34.825 42.8860002 42.914 34.823-34.83c12.781 8.027 26.905997 14.071 42.068997 17.534v49.13h60.654v-49.13c15.161-3.463 29.271-9.507 42.053-17.534l34.825 34.83 42.914-42.914-34.83-34.825c8.027-12.797 14.071-26.892 17.534-42.055h49.13zm-181.953 45.49c-41.875 0-75.815997-33.943-75.815997-75.816 0-41.878 33.940997-75.812 75.815997-75.812 41.875 0 75.814 33.934 75.814 75.812.001 41.872-33.938 75.816-75.814 75.816z" fill="#222" stroke-width="20.00162315" transform="matrix(2.48 0 0 2.481 -96.11 1048.872)"/>
          </g>
        </g>
      </g>
    </g>
  </g>
</svg>
